# This file uses centimeters as units for non-parametric coordinates.

mtllib RedTurret.mtl
g default
v 2.280378 1.956485 -6.344044
v 2.280324 1.924917 -6.387495
v 2.280239 1.873838 -6.404091
v 2.280153 1.822759 -6.387495
v 2.280100 1.791190 -6.344044
v 2.280100 1.791190 -6.290336
v 2.280153 1.822759 -6.246886
v 2.280239 1.873838 -6.230289
v 2.280324 1.924917 -6.246886
v 2.280378 1.956486 -6.290336
v 1.399633 1.957729 -6.344044
v 1.399580 1.926161 -6.387495
v 1.399494 1.875081 -6.404091
v 1.399408 1.824002 -6.387495
v 1.399355 1.792434 -6.344044
v 1.399355 1.792434 -6.290336
v 1.399408 1.824002 -6.246886
v 1.399494 1.875081 -6.230289
v 1.399580 1.926161 -6.246886
v 1.399633 1.957729 -6.290336
v 1.399773 2.040376 -6.370898
v 1.399666 1.977239 -6.457799
v 1.399494 1.875081 -6.490992
v 1.399323 1.772923 -6.457799
v 1.399216 1.709786 -6.370898
v 1.399216 1.709786 -6.263482
v 1.399323 1.772923 -6.176581
v 1.399494 1.875081 -6.143388
v 1.399666 1.977240 -6.176581
v 1.399773 2.040376 -6.263482
v 1.796723 2.039708 -6.370898
v 1.796616 1.976571 -6.457799
v 1.796445 1.874413 -6.490992
v 1.796273 1.772255 -6.457799
v 1.796166 1.709118 -6.370898
v 1.796166 1.709118 -6.263482
v 1.796273 1.772255 -6.176581
v 1.796445 1.874413 -6.143388
v 1.796616 1.976571 -6.176581
v 1.796723 2.039708 -6.263482
v 1.912726 2.141113 -6.403910
v 1.912554 2.039168 -6.544225
v 1.912276 1.874218 -6.597821
v 1.911999 1.709268 -6.544225
v 1.911827 1.607323 -6.403910
v 1.911827 1.607323 -6.230471
v 1.911999 1.709268 -6.090155
v 1.912276 1.874218 -6.036560
v 1.912554 2.039169 -6.090155
v 1.912726 2.141113 -6.230471
v 2.346806 2.140383 -6.403910
v 2.346634 2.038438 -6.544225
v 2.346357 1.873487 -6.597821
v 2.346079 1.708537 -6.544225
v 2.345908 1.606592 -6.403910
v 2.345908 1.606592 -6.230471
v 2.346079 1.708537 -6.090155
v 2.346357 1.873487 -6.036560
v 2.346634 2.038438 -6.090155
v 2.346806 2.140383 -6.230471
vt 0.762890 0.933416
vt 0.859288 0.627891
vt 0.845505 0.648357
vt 0.800878 0.921022
vt 0.725051 0.921196
vt 0.859264 0.603219
vt 0.701749 0.889151
vt 0.845442 0.582781
vt 0.701707 0.849656
vt 0.822556 0.573569
vt 0.724842 0.817724
vt 0.798430 0.578732
vt 0.762311 0.805627
vt 0.781319 0.596511
vt 0.799668 0.818038
vt 0.777080 0.620817
vt 0.822567 0.850198
vt 0.798497 0.652509
vt 0.824363 0.888666
vt 0.822633 0.657618
vt 0.631962 0.147638
vt 0.631821 0.100283
vt 0.632104 0.194993
vt 0.632244 0.242347
vt 0.632386 0.289702
vt 0.632527 0.337056
vt 0.632668 0.384411
vt 0.632809 0.431765
vt 0.632951 0.479120
vt 0.631680 0.052929
vt 0.509349 0.163159
vt 0.464063 0.117701
vt 0.531798 0.222425
vt 0.527215 0.285256
vt 0.496746 0.340165
vt 0.446131 0.377382
vt 0.384554 0.390299
vt 0.323166 0.376590
vt 0.272756 0.338874
vt 0.404222 0.094938
vt 0.002579 0.233820
vt 0.002351 0.157358
vt 0.002807 0.310281
vt 0.003035 0.386742
vt 0.003263 0.463204
vt 0.003491 0.539666
vt 0.003719 0.616127
vt 0.003947 0.692588
vt 0.004175 0.769050
vt 0.002122 0.080897
vt 0.949167 0.655249
vt 0.904650 0.721339
vt 0.949083 0.575554
vt 0.904439 0.509563
vt 0.830549 0.479822
vt 0.752646 0.496478
vt 0.697371 0.553888
vt 0.683699 0.632405
vt 0.716290 0.705109
vt 0.830808 0.751226
vt 0.633593 0.483818
vt 0.396819 0.484411
vt 0.787165 0.643329
vt 0.195542 0.768479
vt 0.193261 0.003864
vt 0.752883 0.734726
vt 0.193717 0.156788
vt 0.193945 0.233249
vt 0.193489 0.080326
vt 0.203083 0.399623
vt 0.315134 0.008122
vt 0.001895 0.004435
vt 0.195314 0.692018
vt 0.195087 0.615556
vt 0.194858 0.539095
vt 0.194630 0.462633
vt 0.194402 0.386172
vt 0.194174 0.309710
vt 0.515213 0.038717
vt 0.588601 0.112019
vt 0.418455 0.001992
vt 0.807948 0.478598
vt 0.806536 0.005053
vt 0.340245 0.098741
vt 0.284629 0.460551
vt 0.384021 0.482772
vt 0.483905 0.461846
vt 0.566225 0.401391
vt 0.616161 0.312011
vt 0.624293 0.209388
vt 0.883533 0.831024
vt 0.885863 0.828696
vt 0.631539 0.005575
vt 0.397791 0.872690
vt 0.634565 0.872098
vt 0.824344 0.848704
vt 0.806818 0.099762
vt 0.806960 0.147116
vt 0.806677 0.052407
vt 0.807807 0.431244
vt 0.807666 0.383889
vt 0.807524 0.336535
vt 0.807384 0.289180
vt 0.807242 0.241825
vt 0.807101 0.194471
vt 0.838912 0.973293
vt 0.762951 0.998008
vt 0.885875 0.908626
vt 0.837611 0.766625
vt 0.762553 0.741781
vt 0.687395 0.766061
vt 0.640968 0.829893
vt 0.640853 0.908896
vt 0.687251 0.973158
vt 0.587211 0.872207
vt 0.563533 0.872266
vt 0.610888 0.872151
vt 0.421469 0.872637
vt 0.445146 0.872582
vt 0.468823 0.872522
vt 0.492501 0.872460
vt 0.516178 0.872394
vt 0.539856 0.872329
vt 0.609916 0.483871
vt 0.586238 0.483927
vt 0.420497 0.484358
vt 0.444174 0.484303
vt 0.467851 0.484242
vt 0.491529 0.484181
vt 0.515206 0.484114
vt 0.538884 0.484050
vt 0.562561 0.483985
vn -0.001412 -0.999999 0.000005
vn -0.001412 -0.999999 0.000005
vn -0.001412 -0.999999 0.000005
vn -0.001412 -0.999999 0.000005
vn -0.001143 -0.809021 0.587779
vn -0.001143 -0.809021 0.587779
vn -0.001143 -0.809021 0.587779
vn -0.001143 -0.809021 0.587779
vn -0.000436 -0.309012 0.951058
vn -0.000436 -0.309012 0.951058
vn -0.000436 -0.309012 0.951058
vn -0.000436 -0.309012 0.951058
vn 0.000437 0.309011 0.951058
vn 0.000437 0.309011 0.951058
vn 0.000437 0.309011 0.951058
vn 0.000437 0.309011 0.951059
vn 0.001143 0.809017 0.587784
vn 0.001143 0.809017 0.587784
vn 0.001143 0.809017 0.587784
vn 0.001143 0.809017 0.587784
vn 0.001412 0.999999 0.000000
vn 0.001412 0.999999 0.000000
vn 0.001412 0.999999 0.000000
vn 0.001412 0.999999 0.000000
vn 0.001143 0.809014 -0.587788
vn 0.001143 0.809014 -0.587788
vn 0.001143 0.809014 -0.587788
vn 0.001143 0.809014 -0.587788
vn 0.000437 0.309019 -0.951056
vn 0.000437 0.309019 -0.951056
vn 0.000437 0.309019 -0.951056
vn 0.000437 0.309019 -0.951056
vn -0.000437 -0.309020 -0.951056
vn -0.000437 -0.309020 -0.951056
vn -0.000437 -0.309019 -0.951056
vn -0.000437 -0.309020 -0.951056
vn -0.001142 -0.809015 -0.587786
vn -0.001142 -0.809015 -0.587786
vn -0.001142 -0.809015 -0.587786
vn -0.001142 -0.809015 -0.587786
vn -0.999999 0.001685 0.000000
vn -0.999999 0.001685 0.000000
vn -0.999999 0.001685 0.000000
vn -0.999999 0.001685 0.000000
vn -0.999999 0.001684 -0.000002
vn -0.999999 0.001684 -0.000002
vn -0.999999 0.001684 -0.000002
vn -0.999999 0.001684 -0.000002
vn -0.999999 0.001685 -0.000001
vn -0.999999 0.001685 -0.000001
vn -0.999999 0.001685 -0.000001
vn -0.999999 0.001685 -0.000001
vn -0.999999 0.001684 0.000000
vn -0.999999 0.001684 0.000000
vn -0.999999 0.001684 0.000000
vn -0.999999 0.001684 0.000000
vn -0.999999 0.001683 -0.000002
vn -0.999999 0.001683 -0.000002
vn -0.999999 0.001683 -0.000002
vn -0.999999 0.001683 -0.000002
vn -0.999999 0.001683 0.000000
vn -0.999999 0.001683 0.000000
vn -0.999999 0.001683 0.000000
vn -0.999999 0.001683 0.000000
vn -0.999999 0.001683 0.000002
vn -0.999999 0.001683 0.000002
vn -0.999999 0.001683 0.000002
vn -0.999999 0.001683 0.000002
vn -0.999999 0.001683 0.000000
vn -0.999999 0.001683 0.000000
vn -0.999999 0.001683 0.000000
vn -0.999999 0.001683 0.000000
vn -0.999999 0.001685 0.000001
vn -0.999999 0.001685 0.000001
vn -0.999999 0.001685 0.000001
vn -0.999999 0.001685 0.000001
vn -0.999999 0.001683 0.000002
vn -0.999999 0.001683 0.000002
vn -0.999999 0.001683 0.000002
vn -0.999999 0.001683 0.000002
vn 0.001600 0.951056 -0.309015
vn 0.001600 0.951056 -0.309016
vn 0.001600 0.951056 0.309016
vn 0.001600 0.951056 0.309015
vn 0.000989 0.587786 -0.809016
vn 0.000989 0.587786 -0.809016
vn -0.000000 -0.000001 -1.000000
vn -0.000000 -0.000000 -1.000000
vn -0.000990 -0.587784 -0.809018
vn -0.000990 -0.587784 -0.809017
vn -0.001601 -0.951055 -0.309018
vn -0.001601 -0.951055 -0.309017
vn -0.001601 -0.951055 0.309019
vn -0.001601 -0.951055 0.309018
vn -0.000990 -0.587782 0.809019
vn -0.000990 -0.587782 0.809018
vn -0.000000 -0.000001 1.000000
vn -0.000000 -0.000000 1.000000
vn 0.000989 0.587784 0.809017
vn 0.000989 0.587784 0.809017
vn -0.676784 0.700260 -0.227157
vn -0.676784 0.700260 -0.227157
vn -0.676784 0.700259 0.227156
vn -0.676784 0.700260 0.227155
vn -0.677235 0.433220 -0.594704
vn -0.677235 0.433220 -0.594705
vn -0.677960 0.001140 -0.735098
vn -0.677960 0.001141 -0.735098
vn -0.678687 -0.430937 -0.594707
vn -0.678687 -0.430938 -0.594707
vn -0.679137 -0.697978 -0.227158
vn -0.679137 -0.697978 -0.227158
vn -0.679136 -0.697979 0.227157
vn -0.679136 -0.697978 0.227158
vn -0.678686 -0.430938 0.594708
vn -0.678686 -0.430938 0.594707
vn -0.677960 0.001140 0.735098
vn -0.677960 0.001140 0.735098
vn -0.677235 0.433219 0.594705
vn -0.677235 0.433219 0.594705
vn 0.001601 0.951055 -0.309017
vn 0.001601 0.951055 -0.309017
vn 0.001601 0.951055 0.309017
vn 0.001601 0.951055 0.309017
vn 0.000990 0.587785 -0.809017
vn 0.000990 0.587785 -0.809017
vn -0.000000 -0.000001 -1.000000
vn 0.000000 0.000000 -1.000000
vn -0.000989 -0.587784 -0.809017
vn -0.000989 -0.587784 -0.809017
vn -0.001601 -0.951055 -0.309017
vn -0.001601 -0.951055 -0.309017
vn -0.001601 -0.951055 0.309018
vn -0.001601 -0.951055 0.309018
vn -0.000990 -0.587785 0.809017
vn -0.000990 -0.587784 0.809017
vn -0.000001 -0.000000 1.000000
vn -0.000001 0.000000 1.000000
vn 0.000989 0.587785 0.809017
vn 0.000989 0.587785 0.809017
vn 0.940520 -0.339739 0.000001
vn 0.940520 -0.339739 0.000001
vn 0.940520 -0.339739 0.000001
vn 0.940520 -0.339739 0.000001
vn 0.940656 -0.275099 0.198714
vn 0.940656 -0.275099 0.198714
vn 0.940656 -0.275099 0.198714
vn 0.940656 -0.275099 0.198714
vn 0.941011 -0.105993 0.321348
vn 0.941010 -0.105993 0.321348
vn 0.941011 -0.105993 0.321348
vn 0.941011 -0.105993 0.321348
vn 0.941448 0.102753 0.321120
vn 0.941448 0.102753 0.321120
vn 0.941448 0.102753 0.321120
vn 0.941448 0.102753 0.321120
vn 0.941801 0.271419 0.198350
vn 0.941801 0.271419 0.198350
vn 0.941801 0.271419 0.198350
vn 0.941801 0.271419 0.198350
vn 0.941936 0.335792 0.000000
vn 0.941936 0.335792 0.000000
vn 0.941936 0.335792 0.000000
vn 0.941936 0.335792 0.000000
vn 0.941802 0.271418 -0.198348
vn 0.941802 0.271418 -0.198348
vn 0.941802 0.271418 -0.198348
vn 0.941802 0.271418 -0.198348
vn 0.941448 0.102753 -0.321120
vn 0.941448 0.102753 -0.321120
vn 0.941448 0.102753 -0.321120
vn 0.941448 0.102753 -0.321120
vn 0.941010 -0.105993 -0.321349
vn 0.941010 -0.105993 -0.321349
vn 0.941010 -0.105993 -0.321349
vn 0.941010 -0.105993 -0.321349
vn 0.940657 -0.275096 -0.198713
vn 0.940657 -0.275096 -0.198713
vn 0.940657 -0.275096 -0.198713
vn 0.940657 -0.275096 -0.198713
s off
g polySurface4
usemtl lambert7SG
f 11/116/1 1/132/2 10/125/3 20/115/4
f 12/123/5 2/131/6 1/132/7 11/116/8
f 13/122/9 3/130/10 2/131/11 12/123/12
f 14/121/13 4/129/14 3/130/15 13/122/16
f 15/120/17 5/128/18 4/129/19 14/121/20
f 16/119/21 6/127/22 5/128/23 15/120/24
f 17/118/25 7/126/26 6/127/27 16/119/28
f 18/94/29 8/62/30 7/126/31 17/118/32
f 19/117/33 9/124/34 8/61/35 18/95/36
f 20/115/37 10/125/38 9/124/39 19/117/40
f 21/107/41 11/1/42 20/4/43 30/106/44
f 22/114/45 12/5/46 11/1/47 21/107/48
f 23/113/49 13/7/50 12/5/51 22/114/52
f 24/112/53 14/9/54 13/7/55 23/113/56
f 25/111/57 15/11/58 14/9/59 24/112/60
f 26/110/61 16/13/62 15/11/63 25/111/64
f 27/109/65 17/15/66 16/13/67 26/110/68
f 28/91/69 18/17/70 17/15/71 27/109/72
f 29/108/73 19/19/74 18/96/75 28/92/76
f 30/106/77 20/4/78 19/19/79 29/108/80
s 1
f 31/98/81 21/21/82 30/22/83 40/97/84
f 32/105/85 22/23/86 21/21/82 31/98/81
f 33/104/87 23/24/88 22/23/86 32/105/85
f 34/103/89 24/25/90 23/24/88 33/104/87
f 35/102/91 25/26/92 24/25/90 34/103/89
f 36/101/93 26/27/94 25/26/92 35/102/91
f 37/100/95 27/28/96 26/27/94 36/101/93
f 38/82/97 28/29/98 27/28/96 37/100/95
f 39/99/99 29/30/100 28/93/98 38/83/97
f 40/97/84 30/22/83 29/30/100 39/99/99
s 2
f 41/80/101 31/31/102 40/32/103 50/79/104
f 42/90/105 32/33/106 31/31/102 41/80/101
f 43/89/107 33/34/108 32/33/106 42/90/105
f 44/88/109 34/35/110 33/34/108 43/89/107
f 45/87/111 35/36/112 34/35/110 44/88/109
f 46/86/113 36/37/114 35/36/112 45/87/111
f 47/85/115 37/38/116 36/37/114 46/86/113
f 48/70/117 38/39/118 37/38/116 47/85/115
f 49/81/119 39/40/120 38/84/118 48/71/117
f 50/79/104 40/32/103 39/40/120 49/81/119
s 3
f 51/68/121 41/41/122 50/42/123 60/67/124
f 52/78/125 42/43/126 41/41/122 51/68/121
f 53/77/127 43/44/128 42/43/126 52/78/125
f 54/76/129 44/45/130 43/44/128 53/77/127
f 55/75/131 45/46/132 44/45/130 54/76/129
f 56/74/133 46/47/134 45/46/132 55/75/131
f 57/73/135 47/48/136 46/47/134 56/74/133
f 58/64/137 48/49/138 47/48/136 57/73/135
f 59/69/139 49/50/140 48/72/138 58/65/137
f 60/67/124 50/42/123 49/50/140 59/69/139
s off
f 51/51/141 60/52/142 10/3/143 1/2/144
f 52/53/145 51/51/146 1/2/147 2/6/148
f 53/54/149 52/53/150 2/6/151 3/8/152
f 54/55/153 53/54/154 3/8/155 4/10/156
f 55/56/157 54/55/158 4/10/159 5/12/160
f 56/57/161 55/56/162 5/12/163 6/14/164
f 57/58/165 56/57/166 6/14/167 7/16/168
f 58/59/169 57/58/170 7/16/171 8/63/172
f 59/60/173 58/66/174 8/18/175 9/20/176
f 60/52/177 59/60/178 9/20/179 10/3/180
