# This file uses centimeters as units for non-parametric coordinates.

mtllib GoldMug.mtl
g default
v 3.249888 0.503035 -7.284663
v 2.679793 0.503035 -7.100688
v 2.326716 0.503035 -6.616755
v 2.325520 0.503035 -6.017711
v 2.676661 0.503035 -5.532372
v 3.246015 0.503035 -5.346119
v 3.816109 0.503035 -5.530096
v 4.169187 0.503035 -6.014028
v 4.170382 0.503035 -6.613071
v 3.819242 0.503035 -7.098411
v 3.249843 2.215903 -7.262373
v 2.692859 2.215903 -7.082628
v 2.347902 2.215903 -6.609824
v 2.346733 2.215903 -6.024557
v 2.689799 2.215903 -5.550378
v 3.246060 2.215903 -5.368409
v 3.803044 2.215903 -5.548155
v 4.148001 2.215903 -6.020958
v 4.149169 2.215903 -6.606226
v 3.806104 2.215903 -7.080403
v 3.249644 2.215903 -7.162802
v 2.751225 2.215903 -7.001956
v 2.442539 2.215903 -6.578866
v 2.441493 2.215903 -6.055137
v 2.748486 2.215903 -5.630817
v 3.246259 2.215903 -5.467981
v 3.744678 2.215903 -5.628827
v 4.053364 2.215903 -6.051918
v 4.054410 2.215903 -6.575645
v 3.747416 2.215903 -6.999966
v 3.249445 2.386868 -7.063231
v 2.809591 2.386868 -6.921284
v 2.537175 2.386868 -6.547907
v 2.536252 2.386868 -6.085717
v 2.807174 2.386868 -5.711255
v 3.246458 2.386868 -5.567552
v 3.686311 2.386868 -5.709499
v 3.958727 2.386868 -6.082877
v 3.959650 2.386868 -6.545066
v 3.688728 2.386868 -6.919528
v 3.249246 2.386868 -6.963659
v 2.867957 2.386868 -6.840612
v 2.631812 2.386868 -6.516948
v 2.631012 2.386868 -6.116298
v 2.865862 2.386868 -5.791694
v 3.246657 2.386868 -5.667123
v 3.627946 2.386868 -5.790172
v 3.864090 2.386868 -6.113835
v 3.864891 2.386868 -6.514486
v 3.630041 2.386868 -6.839089
v 3.250041 0.506255 -7.361945
v 2.634494 0.506255 -7.163300
v 2.253266 0.506255 -6.640782
v 2.251974 0.506255 -5.993977
v 2.631111 0.506255 -5.469940
v 3.245861 0.506255 -5.268837
v 3.861409 0.506255 -5.467483
v 4.242638 0.506255 -5.990000
v 4.243929 0.506255 -6.636806
v 3.864791 0.506255 -7.160843
v 3.250190 0.335290 -7.436479
v 2.590804 0.335290 -7.223686
v 2.182426 0.335290 -6.663956
v 2.181042 0.335290 -5.971086
v 2.587181 0.335290 -5.409729
v 3.245712 0.335290 -5.194304
v 3.905099 0.335290 -5.407097
v 4.313478 0.335290 -5.966826
v 4.314861 0.335290 -6.659697
v 3.908721 0.335290 -7.221054
v 3.249843 1.873973 -7.262373
v 2.692859 1.873973 -7.082628
v 2.347902 1.873973 -6.609824
v 2.346733 1.873973 -6.024557
v 2.689799 1.873973 -5.550378
v 3.246060 1.873973 -5.368409
v 3.803044 1.873973 -5.548155
v 4.148001 1.873973 -6.020958
v 4.148352 1.873973 -6.196539
v 4.148842 1.873973 -6.442351
v 4.149169 1.873973 -6.606226
v 3.806104 1.873973 -7.080403
v 3.249888 0.783018 -7.284663
v 2.679793 0.783018 -7.100688
v 2.326716 0.783018 -6.616755
v 2.325520 0.783018 -6.017711
v 2.676661 0.783018 -5.532372
v 3.246015 0.783018 -5.346119
v 3.816109 0.783018 -5.530096
v 4.169187 0.783018 -6.014028
v 4.169546 0.783018 -6.193742
v 4.170048 0.783018 -6.445339
v 4.170382 0.783018 -6.613071
v 3.819242 0.783018 -7.098411
v 4.621843 1.873973 -6.195593
v 4.622334 1.873973 -6.441406
v 4.621843 0.779798 -6.195593
v 4.622334 0.779798 -6.441406
v 4.243050 1.788491 -6.196350
v 4.243050 0.865281 -6.196350
v 4.527144 0.865281 -6.195783
v 4.527144 1.788491 -6.195783
v 4.243541 1.788491 -6.442163
v 4.243541 0.865281 -6.442163
v 4.527636 1.788491 -6.441595
v 4.527636 0.865281 -6.441595
v 3.249246 2.138019 -6.963658
v 2.867957 2.138019 -6.840612
v 2.631812 2.138019 -6.516948
v 2.631012 2.138019 -6.116298
v 2.865861 2.138019 -5.791694
v 3.246657 2.138019 -5.667124
v 3.627946 2.138019 -5.790172
v 3.864090 2.138019 -6.113835
v 3.864891 2.138019 -6.514486
v 3.630041 2.138019 -6.839089
v 2.589684 0.335290 -6.663143
v 2.588301 0.335290 -5.970273
v 3.248643 0.335290 -6.661828
v 3.247259 0.335290 -5.968955
v 3.906218 0.335290 -5.967638
v 3.907602 0.335290 -6.660511
v 2.867309 2.138019 -6.516479
v 2.866509 2.138019 -6.115827
v 3.247551 2.138019 -6.115066
v 3.248352 2.138019 -6.515718
v 3.628593 2.138019 -6.114305
v 3.629393 2.138019 -6.514956
vt 0.865957 0.572372
vt 0.865957 0.862461
vt 0.884479 0.862461
vt 0.884479 0.572372
vt 0.865957 0.830756
vt 0.884479 0.830756
vt 0.865957 0.798928
vt 0.884479 0.798928
vt 0.865957 0.766973
vt 0.884479 0.766973
vt 0.865957 0.734849
vt 0.884479 0.734849
vt 0.865957 0.702528
vt 0.884479 0.702528
vt 0.865957 0.670060
vt 0.884479 0.670060
vt 0.865957 0.646576
vt 0.865957 0.637466
vt 0.884479 0.637466
vt 0.865957 0.604933
vt 0.884479 0.604933
vt 0.208528 0.621164
vt 0.208528 0.699426
vt 0.208528 0.519352
vt 0.208528 0.440846
vt 0.208528 0.398080
vt 0.208528 0.341166
vt 0.208528 0.275884
vt 0.208528 0.208277
vt 0.208528 0.144160
vt 0.208528 0.088540
vt 0.686628 0.099740
vt 0.686628 0.001984
vt 0.686628 0.159344
vt 0.686628 0.227570
vt 0.686628 0.271241
vt 0.686628 0.356386
vt 0.686628 0.399764
vt 0.686628 0.446462
vt 0.686628 0.486251
vt 0.686628 0.519228
vt 0.975461 0.599967
vt 0.975461 0.570436
vt 0.476628 0.159345
vt 0.975461 0.663591
vt 0.975461 0.682305
vt 0.975461 0.698241
vt 0.975461 0.729323
vt 0.975461 0.744589
vt 0.975461 0.761833
vt 0.975461 0.791308
vt 0.001992 0.076831
vt 0.001992 0.800830
vt 0.777502 0.573048
vt 0.777502 0.983801
vt 0.001992 0.168417
vt 0.777502 0.969992
vt 0.777502 0.963813
vt 0.001992 0.310229
vt 0.001992 0.452133
vt 0.777502 0.950651
vt 0.001992 0.527330
vt 0.777502 0.920656
vt 0.001992 0.580134
vt 0.777502 0.875147
vt 0.782463 0.670060
vt 0.777502 0.816217
vt 0.201592 0.668113
vt 0.782463 0.637466
vt 0.001992 0.735505
vt 0.777502 0.664870
vt 0.448825 0.711577
vt 0.448825 0.777395
vt 0.513732 0.844970
vt 0.581877 0.844970
vt 0.648097 0.777395
vt 0.648097 0.711577
vt 0.648097 0.644394
vt 0.581877 0.574179
vt 0.513732 0.574179
vt 0.448825 0.644394
vt 0.806813 0.572372
vt 0.806813 0.862461
vt 0.806813 0.830756
vt 0.806813 0.798928
vt 0.806813 0.766973
vt 0.806813 0.734849
vt 0.806813 0.702528
vt 0.806813 0.670060
vt 0.806813 0.660285
vt 0.865957 0.660285
vt 0.077457 0.960468
vt 0.001992 0.808183
vt 0.001992 0.960468
vt 0.077457 0.808183
vt 0.806813 0.646576
vt 0.806813 0.637466
vt 0.806813 0.604933
vt 0.383290 0.608358
vt 0.383290 0.316316
vt 0.383290 0.608358
vt 0.383290 0.400619
vt 0.469387 0.316316
vt 0.469387 0.003576
vt 0.469387 0.400619
vt 0.469387 0.608358
vt 0.208528 0.777453
vt 0.208528 0.844636
vt 0.273435 0.707238
vt 0.341580 0.707238
vt 0.407800 0.777453
vt 0.407800 0.844636
vt 0.407800 0.910454
vt 0.341580 0.978030
vt 0.208528 0.910454
vt 0.273435 0.978029
vt 0.581877 0.777395
vt 0.581877 0.711577
vt 0.581877 0.644394
vt 0.513732 0.777395
vt 0.513732 0.711577
vt 0.513732 0.644394
vt 0.273435 0.844636
vt 0.273435 0.910454
vt 0.273435 0.777453
vt 0.341580 0.777453
vt 0.341580 0.844636
vt 0.341580 0.910454
vt 0.690012 0.969992
vt 0.690012 0.963813
vt 0.975461 0.649881
vt 0.476628 0.227570
vt 0.889705 0.744589
vt 0.889705 0.761833
vt 0.889705 0.791308
vt 0.889705 0.570436
vt 0.889705 0.803899
vt 0.889705 0.729323
vt 0.889705 0.698241
vt 0.889705 0.682305
vt 0.889705 0.663591
vt 0.889705 0.649881
vt 0.889705 0.599967
vt 0.476628 0.001984
vt 0.476628 0.566212
vt 0.975461 0.803899
vt 0.056225 0.948353
vt 0.383290 0.003576
vt 0.131690 0.820117
vt 0.426454 0.629945
vt 0.091195 0.820117
vt 0.091195 0.948353
vt 0.131690 0.948353
vt 0.056225 0.820117
vt 0.015730 0.820117
vt 0.015730 0.948353
vt 0.998008 0.245208
vt 0.998008 0.069594
vt 0.998008 0.002104
vt 0.145026 0.808183
vt 0.957228 0.245208
vt 0.957228 0.069594
vt 0.069561 0.960468
vt 0.957228 0.002104
vt 0.145026 0.960468
vt 0.998008 0.329660
vt 0.957228 0.329660
vt 0.069561 0.808183
vt 0.806813 0.894093
vt 0.865957 0.894093
vt 0.693094 0.002956
vt 0.693094 0.565031
vt 0.884479 0.894093
vt 0.201592 0.621452
vt 0.777502 0.746022
vt 0.476628 0.446462
vt 0.476628 0.486401
vt 0.690012 0.816217
vt 0.690012 0.746022
vt 0.690012 0.664870
vt 0.689122 0.572892
vt 0.690012 0.994233
vt 0.690012 0.875147
vt 0.690012 0.920656
vt 0.690012 0.950651
vt 0.690012 0.983801
vt 0.201592 0.800830
vt 0.201592 0.002218
vt 0.777502 0.994233
vt 0.201592 0.735505
vt 0.201592 0.580134
vt 0.201592 0.527330
vt 0.201592 0.452133
vt 0.201592 0.310229
vt 0.201592 0.168417
vt 0.201592 0.076831
vt 0.782463 0.572372
vt 0.782463 0.894093
vt 0.001992 0.002218
vt 0.476628 0.519228
vt 0.476628 0.399763
vt 0.476628 0.356386
vt 0.476628 0.271241
vt 0.476628 0.099740
vt 0.376211 0.699426
vt 0.376211 0.003603
vt 0.686628 0.566212
vt 0.376211 0.088540
vt 0.376211 0.144160
vt 0.376211 0.208277
vt 0.376211 0.275884
vt 0.376211 0.341166
vt 0.376211 0.398080
vt 0.376211 0.440845
vt 0.376211 0.519352
vt 0.376211 0.621164
vt 0.951728 0.565031
vt 0.951728 0.002956
vt 0.208528 0.003603
vt 0.951728 0.052106
vt 0.951728 0.106513
vt 0.951728 0.188795
vt 0.951728 0.246560
vt 0.951728 0.305869
vt 0.951728 0.360765
vt 0.951728 0.437040
vt 0.951728 0.487245
vt 0.951728 0.529883
vt 0.693094 0.052106
vt 0.693094 0.246560
vt 0.693094 0.305869
vt 0.693094 0.360765
vt 0.693094 0.437040
vt 0.693094 0.487245
vt 0.693094 0.529883
vt 0.782463 0.604933
vt 0.782463 0.702528
vt 0.782463 0.734849
vt 0.782463 0.766973
vt 0.782463 0.798928
vt 0.782463 0.830756
vt 0.782463 0.862461
vt 0.693094 0.106513
vt 0.693094 0.188795
vt 0.001992 0.668113
vt 0.001992 0.621452
vn 0.001998 0.015613 -0.999876
vn -0.586096 0.015613 -0.810091
vn -0.572391 0.215529 -0.791149
vn 0.001952 0.215529 -0.976496
vn -0.950322 0.015613 -0.310877
vn -0.928100 0.215529 -0.303608
vn -0.951556 0.015612 0.307079
vn -0.929305 0.215529 0.299899
vn -0.589328 0.015612 0.807743
vn -0.575548 0.215530 0.788855
vn -0.001997 0.015612 0.999876
vn -0.001950 0.215530 0.976495
vn 0.586096 0.015612 0.810091
vn 0.572391 0.215529 0.791148
vn 0.876083 0.015770 0.481902
vn 0.880939 0.274217 0.385683
vn 0.944601 0.295097 -0.143688
vn 0.874627 0.015726 -0.484542
vn 0.883474 0.273124 -0.380628
vn 0.589328 0.015613 -0.807743
vn 0.575548 0.215528 -0.788855
vn 0.000000 1.000000 -0.000001
vn 0.000000 1.000000 0.000001
vn 0.000000 1.000000 -0.000000
vn 0.000000 1.000000 0.000000
vn 0.000000 1.000000 0.000000
vn 0.000000 1.000000 -0.000000
vn 0.000000 1.000000 -0.000000
vn 0.000000 1.000000 -0.000000
vn 0.000000 1.000000 0.000000
vn 0.000000 1.000000 0.000002
vn 0.001726 0.503276 -0.864124
vn -0.506523 0.503276 -0.700106
vn -0.424271 0.690006 -0.586418
vn 0.001445 0.690006 -0.723803
vn -0.821297 0.503277 -0.268671
vn -0.687930 0.690006 -0.225042
vn -0.822364 0.503277 0.265388
vn -0.688823 0.690006 0.222292
vn -0.509316 0.503276 0.698077
vn -0.426609 0.690006 0.584719
vn -0.001726 0.503276 0.864124
vn -0.001446 0.690006 0.723803
vn 0.506523 0.503279 0.700104
vn 0.424270 0.690007 0.586417
vn 0.821295 0.503281 0.268670
vn 0.687928 0.690008 0.225041
vn 0.822363 0.503278 -0.265387
vn 0.688823 0.690007 -0.222293
vn 0.509316 0.503275 -0.698077
vn 0.426610 0.690005 -0.584719
vn 0.520689 0.459275 0.719687
vn -0.001775 0.459277 0.888291
vn 0.844268 0.459275 0.276185
vn 0.845364 0.459275 -0.272810
vn 0.523561 0.459276 -0.717600
vn 0.001774 0.459277 -0.888292
vn -0.520691 0.459274 -0.719686
vn -0.844268 0.459275 -0.276185
vn -0.845364 0.459276 0.272811
vn -0.523559 0.459276 0.717601
vn 0.024398 0.999133 0.033722
vn -0.000083 0.999133 0.041622
vn 0.001592 0.603869 -0.797082
vn -0.467226 0.603867 -0.645789
vn 0.039560 0.999133 0.012941
vn -0.757579 0.603868 -0.247826
vn -0.758563 0.603868 0.244798
vn 0.039611 0.999133 -0.012783
vn 0.024532 0.999133 -0.033624
vn -0.469802 0.603868 0.643918
vn 0.000083 0.999133 -0.041622
vn -0.001592 0.603868 0.797083
vn -0.024398 0.999133 -0.033722
vn 0.467225 0.603868 0.645790
vn 0.826913 0.420399 0.373470
vn 0.757579 0.603868 0.247826
vn 0.758563 0.603868 -0.244798
vn 0.829919 0.418711 -0.368668
vn -0.024532 0.999133 0.033624
vn 0.469802 0.603869 -0.643917
vn 0.000618 -0.950884 -0.309547
vn -0.223667 -0.924338 -0.309147
vn -0.576255 -0.795232 -0.188510
vn -0.577003 -0.795232 0.186207
vn -0.224900 -0.924338 0.308251
vn -0.000618 -0.950884 0.309548
vn 0.223667 -0.924338 0.309148
vn 0.576253 -0.795234 0.188509
vn 0.577002 -0.795233 -0.186206
vn 0.224900 -0.924338 -0.308252
vn 0.001998 0.016205 -0.999867
vn -0.586091 0.016205 -0.810083
vn -0.950313 0.016205 -0.310874
vn -0.951547 0.016205 0.307076
vn -0.589323 0.016205 0.807735
vn -0.001997 0.016205 0.999867
vn 0.586091 0.016205 0.810084
vn 0.876894 0.016318 0.480406
vn 0.949950 -0.275410 0.147461
vn 0.947968 0.284875 0.142136
vn 0.895765 0.387442 -0.217930
vn 0.894886 0.387443 0.221509
vn 0.899215 -0.377965 0.220351
vn 0.900070 -0.378014 -0.216747
vn 0.946271 -0.286768 -0.149447
vn 0.875408 0.016275 -0.483111
vn 0.589323 0.016205 -0.807735
vn 0.001998 0.000000 -0.999998
vn -0.586167 0.000000 -0.810190
vn -0.950438 0.000000 -0.310915
vn -0.951672 0.000000 0.307117
vn -0.589400 0.000000 0.807842
vn -0.001998 0.000000 0.999998
vn 0.586168 0.000000 0.810190
vn 0.589400 0.000000 -0.807841
vn 0.770438 0.238304 0.591300
vn 0.772833 -0.235415 0.589329
vn -0.750647 0.233439 0.618090
vn -0.747812 -0.229737 0.622895
vn 0.775468 -0.235228 -0.585933
vn 0.773055 0.238470 -0.587808
vn -0.745314 -0.229737 -0.625881
vn -0.748096 0.233699 -0.621077
vn 0.412153 0.711061 0.569669
vn -0.001254 0.778669 0.627433
vn 0.808403 0.525880 0.264453
vn 0.809453 0.525880 -0.261221
vn 0.414425 0.711061 -0.568017
vn 0.001253 0.778669 -0.627434
vn -0.412153 0.711061 -0.569669
vn -0.808403 0.525880 -0.264453
vn -0.414424 0.711061 0.568018
vn -0.809452 0.525881 0.261221
vn 0.000000 -1.000000 0.000000
vn 0.000000 -1.000000 0.000000
vn 0.000000 -1.000000 0.000000
vn 0.000000 -1.000000 0.000000
vn 0.000000 -1.000000 -0.000000
vn 0.000000 -1.000000 -0.000000
vn 0.000000 1.000000 -0.000000
vn 0.000000 1.000000 -0.000000
vn 0.000000 1.000000 -0.000000
vn 0.000000 1.000000 -0.000000
vn 0.000000 1.000000 -0.000000
vn 0.000000 1.000000 -0.000000
s 1
g polySurface6
usemtl blinn1SG
f 71/170/1 72/2/2 12/3/3 11/173/4
f 72/2/2 73/5/5 13/6/6 12/3/3
f 74/7/7 14/8/8 13/6/6 73/5/5
f 74/7/7 75/9/9 15/10/10 14/8/8
f 75/9/9 76/11/11 16/12/12 15/10/10
f 76/11/11 77/13/13 17/14/14 16/12/12
f 77/13/13 78/15/15 18/16/16 17/14/14
f 80/17/17 81/18/18 19/19/19
f 81/18/18 82/20/20 20/21/21 19/19/19
f 82/20/20 71/1/1 11/4/4 20/21/21
f 11/172/4 12/235/3 22/228/22 21/217/23
f 12/235/3 13/234/6 23/227/24 22/228/22
f 14/233/8 24/226/25 23/227/24 13/234/6
f 14/233/8 15/232/10 25/225/26 24/226/25
f 15/232/10 16/231/12 26/224/27 25/225/26
f 16/231/12 17/230/14 27/223/28 26/224/27
f 17/230/14 18/244/16 28/222/29 27/223/28
f 19/243/19 29/221/30 28/222/29 18/244/16
f 19/243/19 20/229/21 30/220/31 29/221/30
f 20/229/21 11/171/4 21/218/23 30/220/31
s 3
f 21/23/32 22/22/33 32/216/34 31/205/35
f 22/22/33 23/24/36 33/215/37 32/216/34
f 24/25/38 34/214/39 33/215/37 23/24/36
f 24/25/38 25/26/40 35/213/41 34/214/39
f 25/26/40 26/27/42 36/212/43 35/213/41
f 26/27/42 27/28/44 37/211/45 36/212/43
f 27/28/44 28/29/46 38/210/47 37/211/45
f 29/30/48 39/209/49 38/210/47 28/29/46
f 29/30/48 30/31/50 40/208/51 39/209/49
f 30/31/50 21/219/32 31/206/35 40/208/51
f 31/33/35 32/32/34 42/204/52 41/144/53
f 32/32/34 33/34/37 43/44/54 42/204/52
f 34/35/39 44/132/55 43/44/54 33/34/37
f 34/35/39 35/36/41 45/203/56 44/132/55
f 35/36/41 36/37/43 46/202/57 45/203/56
f 36/37/43 37/38/45 47/201/58 46/202/57
f 37/38/45 38/39/47 48/176/59 47/201/58
f 39/40/49 49/177/60 48/176/59 38/39/47
f 39/40/49 40/41/51 50/200/61 49/177/60
f 40/41/51 31/207/35 41/145/53 50/200/61
s 1
f 2/52/62 1/199/63 51/188/64 52/196/65
f 3/56/66 2/52/62 52/196/65 53/195/67
f 54/194/68 4/59/69 3/56/66 53/195/67
f 5/60/70 4/59/69 54/194/68 55/193/71
f 6/62/72 5/60/70 55/193/71 56/192/73
f 7/64/74 6/62/72 56/192/73 57/191/75
f 8/246/76 7/64/74 57/191/75 58/174/77
f 58/174/77 59/68/78 9/245/79 8/246/76
f 10/70/80 9/245/79 59/68/78 60/190/81
f 1/53/63 10/70/80 60/190/81 51/187/64
f 52/55/65 51/189/64 61/182/82 62/186/83
f 53/57/67 52/55/65 62/186/83 63/129/84
f 63/129/84 64/130/85 54/58/68 53/57/67
f 55/61/71 54/58/68 64/130/85 65/185/86
f 56/63/73 55/61/71 65/185/86 66/184/87
f 57/65/75 56/63/73 66/184/87 67/183/88
f 58/67/77 57/65/75 67/183/88 68/178/89
f 69/179/90 59/175/78 58/67/77 68/178/89
f 60/71/81 59/175/78 69/179/90 70/180/91
f 51/54/64 60/71/81 70/180/91 61/181/82
f 83/169/92 84/83/93 72/2/2 71/170/1
f 84/83/93 85/84/94 73/5/5 72/2/2
f 86/85/95 74/7/7 73/5/5 85/84/94
f 86/85/95 87/86/96 75/9/9 74/7/7
f 87/86/96 88/87/97 76/11/11 75/9/9
f 88/87/97 89/88/98 77/13/13 76/11/11
f 89/88/98 90/89/99 78/15/15 77/13/13
f 90/89/99 91/90/100 79/91/101 78/15/15
f 96/157/102 95/161/103 97/162/104 98/158/105
f 81/18/18 80/17/17 92/96/106 93/97/107
f 93/97/107 94/98/108 82/20/20 81/18/18
f 94/98/108 83/82/92 71/1/1 82/20/20
f 1/198/109 2/242/110 84/83/93 83/169/92
f 2/242/110 3/241/111 85/84/94 84/83/93
f 4/240/112 86/85/95 85/84/94 3/241/111
f 4/240/112 5/239/113 87/86/96 86/85/95
f 5/239/113 6/238/114 88/87/97 87/86/96
f 6/238/114 7/237/115 89/88/98 88/87/97
f 7/237/115 8/66/76 90/89/99 89/88/98
f 9/69/79 93/97/107 92/96/106
f 9/69/79 10/236/116 94/98/108 93/97/107
f 10/236/116 1/197/109 83/82/92 94/98/108
f 80/166/17 79/167/101 95/161/103 96/157/102
f 91/164/100 92/159/106 98/158/105 97/162/104
f 79/168/101 91/163/100 100/147/117 99/154/118
f 91/163/100 97/94/104 101/156/119 100/147/117
f 97/94/104 95/93/103 102/155/120 101/156/119
f 95/93/103 79/168/101 99/154/118 102/155/120
f 92/160/106 80/165/17 103/153/121 104/149/122
f 80/165/17 96/92/102 105/152/123 103/153/121
f 96/92/102 98/95/105 106/151/124 105/152/123
f 98/95/105 92/160/106 104/149/122 106/151/124
f 99/100/118 100/148/117 104/104/122 103/103/121
f 100/99/117 101/101/119 106/106/124 104/150/122
f 101/101/119 102/102/120 105/105/123 106/106/124
f 102/102/120 99/100/118 103/103/121 105/105/123
s 3
f 41/43/53 42/42/52 108/143/125 107/136/126
f 42/42/52 43/131/54 109/142/127 108/143/125
f 43/131/54 44/45/55 110/141/128 109/142/127
f 44/45/55 45/46/56 111/140/129 110/141/128
f 45/46/56 46/47/57 112/139/130 111/140/129
f 46/47/57 47/48/58 113/138/131 112/139/130
f 47/48/58 48/49/59 114/133/132 113/138/131
f 49/50/60 50/51/61 116/135/133 115/134/134
f 50/51/61 41/146/53 107/137/126 116/135/133
f 48/49/59 49/50/60 115/134/134 114/133/132
s 1
f 118/117/135 120/118/136 66/77/87 65/76/86
f 67/78/88 66/77/87 120/118/136 121/119/137
f 121/119/137 68/79/89 67/78/88
f 65/76/86 64/75/85 118/117/135
f 117/120/138 63/74/84 62/73/83
f 62/73/83 61/72/82 119/121/139 117/120/138
f 122/122/140 119/121/139 61/72/82 70/81/91
f 70/81/91 69/80/90 122/122/140
f 122/122/140 69/80/90 68/79/89 121/119/137
f 121/119/137 120/118/136 119/121/139 122/122/140
f 117/120/138 119/121/139 120/118/136 118/117/135
f 118/117/135 64/75/85 63/74/84 117/120/138
s 3
f 126/123/141 128/124/142 116/115/133 107/108/126
f 116/115/133 128/124/142 115/116/134
f 107/108/126 108/107/125 123/125/143 126/123/141
f 109/109/127 123/125/143 108/107/125
f 124/126/144 110/110/128 111/111/129
f 125/127/145 124/126/144 111/111/129 112/112/130
f 112/112/130 113/113/131 127/128/146 125/127/145
f 114/114/132 127/128/146 113/113/131
f 115/116/134 128/124/142 127/128/146 114/114/132
f 125/127/145 127/128/146 128/124/142 126/123/141
f 126/123/141 123/125/143 124/126/144 125/127/145
f 109/109/127 110/110/128 124/126/144 123/125/143
s 1
f 79/91/101 18/16/16 78/15/15
f 80/17/17 19/19/19 18/16/16 79/91/101
f 9/69/79 92/96/106 91/90/100 8/66/76
f 8/66/76 91/90/100 90/89/99
